<svg xmlns="http://www.w3.org/2000/svg" viewBox="-60 -60 870 240">
    <defs>
        <style>
            @keyframes dash {
                0% {
                    stroke-dashoffset: calc(var(--len) + 1px);
                }
                100% {
                    stroke-dashoffset: 0;
                }
            }
            @keyframes stroke-width {
                0% {
                    stroke-width: 3px;
                }
                100% {
                    stroke-width: 8px;
                }
            }
            @keyframes fade {
                0% {
                    opacity: 0;
                }
                100% {
                    opacity: 1;
                }
            }
            @keyframes dot {
                0% {
                    r: 0px;
                }
                100% {
                    r: var(--r);
                }
            }
            @keyframes glow {
                0% {
                    filter: drop-shadow(0 0 2px rgba(255, 255, 255, 0.4)) drop-shadow(0 0 4px var(--color)) drop-shadow(0 0 26px var(--color));
                }
                100% {
                    filter: drop-shadow(0 0 1.8px rgba(255, 255, 255, 0.4)) drop-shadow(0 0 3.6px var(--color)) drop-shadow(0 0 23.5px var(--color));
                }
            }
            @keyframes flicker {
                0%, 18%, 22%, 25%, 53%, 57%, 100% {
                    opacity: 1;
                }
                20%, 24%, 55% {
                    opacity: 0.87;
                }
            }


            :root {
                --red: #f96a9c;
                --pink: #ff96ef;
                --blue: #7e8af3;
                --purple: #b983e9;
                --neon-animation: glow 0.11s ease-in-out 0s infinite alternate,
                flicker 2s infinite 2.8s alternate;
            }

            .stroke {
                fill: none;
                stroke: var(--color);
                stroke-linecap: round;
                stroke-linejoin: round;
                stroke-width: 2px;
                
                stroke-dasharray: calc(var(--len) + 1px);
                stroke-dashoffset: calc(var(--len) + 1px);
                animation: dash 1s cubic-bezier(0.8, 0, 0.2, 1) var(--delay) forwards,
                    stroke-width 1s cubic-bezier(0.8, 0, 0.2, 1) calc(var(--delay) + 0.5s) forwards,
                    fade 0.2s linear calc(var(--delay) + 0s) forwards,
                    var(--neon-animation);
            }
            .dot {
                fill: var(--color);
                r: 0;
                animation: dot 1s cubic-bezier(0.8, 0, 0.2, 1) var(--delay) forwards,
                var(--neon-animation);
            }
            
            .stroke, .dot {
                --color: var(--pink);
            }
            .stroke.blue, .dot.blue {
                --color: var(--blue);
            }
            .stroke.red, .dot.red {
                --color: var(--red);
            }
            .stroke.purple, .dot.purple {
                --color: var(--purple);
            }

        </style>
    </defs>
    <g id="text">
        <path class="stroke red" style="--len: 167.056px; --delay: 0.5s;" d="M 152.945 2.353 L 153.488 2.353 Q 154.936 2.353 154.936 3.801 Q 154.393 6.335 152.312 7.693 Q 150.23 9.05 147.877 9.231 Q 144.8 9.593 141.452 9.684 A 83.75 83.75 0 0 1 139.189 9.714 A 94.273 94.273 0 0 1 134.483 9.593 A 116.856 116.856 0 0 0 119.85 24.311 A 147.357 147.357 0 0 0 119.822 24.345 A 327.476 327.476 0 0 0 105.929 42.135 A 403.874 403.874 0 0 0 104.98 43.44 L 97.016 54.3 L 124.347 54.3 Q 129.958 47.422 135.931 40.906 Q 141.904 34.39 147.696 28.598 Q 151.678 24.797 156.384 21.177 Q 161.09 17.557 165.706 15.114 A 18.695 18.695 0 0 1 173.215 12.685 A 10.086 10.086 0 0 1 173.76 12.67 A 63.459 63.459 0 0 0 169.794 16.099 A 205.566 205.566 0 0 0 166.43 19.277 Q 161.452 24.073 157.289 28.598 A 303.828 303.828 0 0 0 148.109 38.881 A 457.365 457.365 0 0 0 144.71 42.897 Q 137.741 51.223 130.954 59.911 A 480.238 480.238 0 0 0 119.077 75.725 A 371.979 371.979 0 0 0 118.736 76.201 A 146.964 146.964 0 0 0 113.08 84.643 A 65.715 65.715 0 0 0 110.772 88.69 Q 107.876 93.577 107.876 97.74 Q 107.876 101.541 110.953 101.541 A 11.046 11.046 0 0 0 115.355 100.161 A 31.967 31.967 0 0 0 116.202 99.731 Q 121.451 96.654 125.071 92.944 A 274.245 274.245 0 0 0 133.181 84.205 A 447.467 447.467 0 0 0 133.216 84.165 Q 133.94 84.165 133.94 85.251 Q 133.94 86.88 133.216 87.785 A 114.424 114.424 0 0 1 125.646 95.946 A 42.186 42.186 0 0 1 119.37 101.089 Q 113.849 104.618 107.152 104.618 A 8.88 8.88 0 0 1 101.295 103.01 A 4.563 4.563 0 0 1 100.817 102.537 Q 99.007 100.455 99.007 97.197 Q 99.007 94.301 100.274 90.681 Q 101.541 87.061 103.532 83.622 Q 107.152 77.287 111.949 70.409 Q 116.745 63.531 122.175 56.834 L 95.206 56.834 Q 88.871 65.703 81.631 75.025 Q 74.391 84.346 66.065 92.22 Q 57.739 100.093 47.875 104.98 Q 38.01 109.867 26.426 109.867 Q 19.367 109.867 13.304 107.695 Q 7.24 105.523 3.62 100.727 A 19.788 19.788 0 0 1 0.014 89.108 A 32.289 32.289 0 0 1 0 88.147 Q 0 80.907 3.711 74.301 Q 7.421 67.694 13.485 62.445 Q 19.548 57.196 27.06 54.119 Q 34.571 51.042 42.173 51.042 Q 43.621 51.042 43.802 51.676 A 0.709 0.709 0 0 1 43.832 51.869 A 0.576 0.576 0 0 1 43.078 52.309 Q 36.924 52.309 30.318 55.296 Q 23.711 58.282 18.191 63.441 Q 12.67 68.599 9.231 74.934 Q 5.792 81.269 5.792 87.785 A 23.705 23.705 0 0 0 7.625 97.706 A 13.012 13.012 0 0 0 11.132 102.356 Q 16.471 106.79 23.892 106.79 Q 29.684 106.79 35.929 104.528 Q 42.173 102.265 47.603 98.283 Q 59.73 88.69 69.323 76.201 Q 78.916 63.712 88.69 51.042 Q 95.206 42.897 101.089 35.205 Q 106.971 27.512 114.754 20.272 Q 118.193 17.014 122.085 14.118 Q 125.976 11.222 129.777 9.412 Q 118.012 8.688 104.98 7.15 Q 91.948 5.611 80.183 5.611 Q 68.418 5.611 58.373 8.417 Q 48.327 11.222 43.078 18.643 Q 40.001 22.987 40.001 27.15 Q 40.001 30.046 41.268 31.856 Q 41.811 32.58 42.716 33.395 Q 43.621 34.209 44.345 34.209 Q 43.621 34.933 42.535 34.933 Q 41.268 34.933 40.092 34.3 Q 38.915 33.666 38.191 32.942 Q 36.381 30.951 35.476 28.327 Q 34.571 25.702 34.571 23.168 Q 34.571 18.1 36.924 14.661 Q 46.583 1.424 69.502 1.269 A 80.569 80.569 0 0 1 70.047 1.267 Q 75.296 1.267 81.541 1.901 Q 87.785 2.534 94.844 3.62 A 169.757 169.757 0 0 0 101.326 4.485 A 350.29 350.29 0 0 0 104.075 4.797 Q 109.867 5.43 116.836 5.883 Q 123.804 6.335 130.501 6.335 A 100.998 100.998 0 0 0 144.318 5.486 A 70.513 70.513 0 0 0 144.71 5.43 A 21.579 21.579 0 0 0 151.019 3.724 A 6.481 6.481 0 0 0 152.945 2.353 Z"/>
        <path class="stroke blue" style="--len: 177.214px; --delay: 0.65s;" d="M 175.389 52.309 L 174.665 52.309 Q 166.882 62.264 162.267 73.034 A 52.995 52.995 0 0 0 157.651 93.781 A 44.569 44.569 0 0 0 157.651 93.939 A 19.551 19.551 0 0 0 158.883 101.519 A 8.024 8.024 0 0 0 160.728 104.256 Q 163.805 107.152 168.33 107.152 Q 172.674 107.152 177.652 105.342 Q 182.629 103.532 187.154 100.908 Q 191.679 98.283 194.756 95.93 Q 201.996 90.319 208.784 84.165 Q 215.571 78.011 220.911 72.581 A 210.689 210.689 0 0 0 227.097 66.056 A 93.485 93.485 0 0 0 229.146 63.712 Q 232.766 59.006 235.753 55.115 Q 238.739 51.223 243.445 51.223 Q 246.522 51.223 246.522 53.938 Q 246.522 56.11 244.531 57.015 Q 240.006 57.196 236.115 60.002 Q 232.223 62.807 230.232 67.694 Q 227.336 74.753 224.44 82.174 Q 221.544 89.595 217.924 97.016 Q 211.951 109.505 202.992 120.184 Q 194.032 130.863 181.724 137.289 A 58.509 58.509 0 0 1 158.119 143.557 A 78.084 78.084 0 0 1 153.126 143.714 Q 146.972 143.714 141.09 141.904 Q 135.207 140.094 131.316 135.569 A 17.533 17.533 0 0 1 127.519 125.227 A 32.021 32.021 0 0 1 127.424 122.718 Q 127.424 116.745 130.592 112.854 A 13.832 13.832 0 0 1 134.317 109.381 A 3.068 3.068 0 0 1 135.75 108.962 Q 136.112 108.962 136.474 109.324 Q 134.845 110.772 133.85 114.03 Q 132.854 117.288 132.854 120.908 Q 132.854 128.329 137.832 134.121 A 17.525 17.525 0 0 0 151.205 139.896 A 29.436 29.436 0 0 0 152.221 139.913 Q 164.891 139.913 174.937 133.669 Q 184.982 127.424 193.218 117.198 Q 201.453 106.971 208.693 95.025 Q 212.132 89.414 214.938 84.98 Q 217.743 80.545 220.096 76.925 Q 215.209 82.355 208.784 88.328 Q 202.358 94.301 195.209 99.46 Q 188.059 104.618 180.548 107.786 Q 173.036 110.953 165.796 110.953 Q 158.556 110.953 153.307 106.609 A 14.767 14.767 0 0 1 148.571 97.556 A 33.789 33.789 0 0 1 148.058 91.405 Q 148.058 81.269 152.583 71.224 Q 157.108 61.178 164.529 51.766 A 57.601 57.601 0 0 1 150.569 48.406 A 36.396 36.396 0 0 1 145.524 45.974 Q 138.103 41.63 138.103 33.304 Q 138.103 27.512 141.361 23.621 Q 144.619 19.729 149.597 17.376 Q 154.574 15.023 160.276 13.756 Q 165.977 12.489 170.955 12.127 Q 175.932 11.765 178.828 11.765 A 138.267 138.267 0 0 1 181.56 11.816 A 687.027 687.027 0 0 1 183.082 11.856 Q 186.43 11.946 190.322 12.218 Q 194.213 12.489 197.109 13.032 A 5.957 5.957 0 0 1 199.855 13.979 A 0.462 0.462 0 0 1 200.005 14.299 Q 200.005 15.023 198.738 15.023 Q 196.385 15.023 193.489 14.752 Q 190.593 14.48 187.697 14.48 L 183.353 14.48 Q 181.181 14.48 179.19 14.661 A 131.448 131.448 0 0 0 171.469 15.324 A 233.835 233.835 0 0 0 170.14 15.476 Q 164.71 16.109 159.371 18.01 Q 154.031 19.91 150.411 23.621 Q 146.791 27.331 146.791 33.666 Q 146.791 40.363 152.312 44.074 A 30.39 30.39 0 0 0 164.011 48.467 A 48.999 48.999 0 0 0 166.701 48.87 Q 175.208 38.734 186.068 30.137 Q 196.928 21.539 208.241 15.204 A 135.168 135.168 0 0 1 228.815 5.712 A 108.683 108.683 0 0 1 230.142 5.249 Q 240.73 1.629 248.694 1.629 Q 253.943 1.629 258.468 3.53 Q 262.993 5.43 262.993 11.403 Q 262.993 18.462 257.473 24.616 A 52.274 52.274 0 0 1 245.515 34.228 A 76.241 76.241 0 0 1 242.721 35.838 Q 233.49 40.906 222.087 44.617 Q 210.684 48.327 198.557 50.318 Q 186.43 52.309 175.389 52.309 Z M 176.837 49.413 Q 186.792 49.232 198.014 47.151 Q 209.236 45.069 220.006 41.449 Q 230.775 37.829 239.554 33.033 A 58.259 58.259 0 0 0 251.489 24.641 A 39.912 39.912 0 0 0 253.581 22.535 Q 258.83 16.833 258.83 10.86 Q 258.83 6.697 255.663 5.43 Q 252.495 4.163 248.875 4.163 A 43.481 43.481 0 0 0 235.621 6.493 A 67.752 67.752 0 0 0 232.223 7.693 A 109.947 109.947 0 0 0 214.358 16.617 A 140.739 140.739 0 0 0 213.128 17.376 Q 203.263 23.53 193.851 31.766 Q 184.439 40.001 176.837 49.413 Z"/>
        <path class="stroke purple" style="--len: 195.061px; --delay: 0.95s;" d="M 365.982 6.697 L 366.344 6.697 Q 367.792 6.697 367.43 8.326 Q 366.887 10.498 364.987 11.132 Q 363.086 11.765 360.914 12.67 Q 347.882 24.435 337.384 37.558 Q 326.886 50.68 317.474 64.074 Q 311.501 72.4 305.89 80.636 Q 300.279 88.871 295.03 96.292 A 47.842 47.842 0 0 0 301.257 91.816 A 125.983 125.983 0 0 0 307.429 86.337 A 316.526 316.526 0 0 0 319.629 74.153 A 432.446 432.446 0 0 0 323.99 69.504 Q 332.859 59.911 341.366 50.137 Q 348.787 41.63 357.475 32.852 Q 366.163 24.073 375.394 16.652 A 116.598 116.598 0 0 1 391.202 5.813 A 89.416 89.416 0 0 1 393.404 4.616 A 40.066 40.066 0 0 1 405.228 0.365 A 25.13 25.13 0 0 1 409.422 0 Q 414.309 0 418.834 2.082 Q 423.359 4.163 423.359 10.317 Q 423.359 12.308 422.092 14.842 Q 420.825 17.376 418.291 17.919 Q 419.196 17.014 419.558 15.295 Q 419.92 13.575 420.101 12.308 Q 420.101 9.231 417.477 7.15 A 11.538 11.538 0 0 0 411.121 5.141 A 27.568 27.568 0 0 0 409.06 5.068 A 32.986 32.986 0 0 0 395.747 8.209 A 50.977 50.977 0 0 0 393.404 9.322 A 99.974 99.974 0 0 0 377.304 19.683 A 129.978 129.978 0 0 0 376.209 20.544 Q 367.43 27.512 359.014 35.838 Q 350.597 44.164 343.538 52.128 Q 335.936 60.816 328.063 69.414 A 345.9 345.9 0 0 1 313.006 84.925 A 275.133 275.133 0 0 1 312.949 84.98 A 131.725 131.725 0 0 1 303.721 93.15 A 74.973 74.973 0 0 1 300.008 95.93 A 24.091 24.091 0 0 1 294.154 99.109 Q 292.748 99.58 291.608 99.58 A 5.069 5.069 0 0 1 291.048 99.55 Q 290.867 99.55 290.867 99.369 Q 290.324 99.369 289.962 98.283 Q 289.781 97.74 289.781 96.292 A 23.009 23.009 0 0 1 291.538 88.315 A 50.299 50.299 0 0 1 293.22 84.437 A 115.311 115.311 0 0 1 300.901 71.093 A 161.22 161.22 0 0 1 302.27 69.052 Q 307.881 60.816 314.126 52.762 Q 320.37 44.707 326.072 38.101 A 250.861 250.861 0 0 1 333.013 30.343 A 118.954 118.954 0 0 1 335.574 27.693 Q 339.737 23.53 344.715 19.367 Q 349.692 15.204 354.579 12.308 L 351.864 12.308 Q 348.063 12.489 343.267 14.571 Q 338.47 16.652 333.945 19.548 Q 329.42 22.444 325.981 25.34 A 120.269 120.269 0 0 0 318.491 32.39 A 213.588 213.588 0 0 0 314.578 36.472 Q 308.062 43.44 301.003 51.676 Q 293.944 59.911 287.247 68.418 Q 280.55 76.925 273.22 85.613 Q 265.889 94.301 257.925 101.632 Q 249.961 108.962 241.545 113.487 Q 233.128 118.012 224.078 118.012 Q 220.82 118.012 217.472 117.017 Q 214.123 116.021 211.861 113.397 Q 209.598 110.772 209.598 106.247 Q 209.598 103.713 211.499 100.546 Q 213.399 97.378 216.114 97.378 Q 214.666 99.55 214.666 102.627 Q 214.666 105.885 217.381 108.148 Q 220.096 110.41 226.069 110.41 A 31.482 31.482 0 0 0 240.075 106.758 A 45.93 45.93 0 0 0 240.549 106.519 Q 248.151 102.627 255.934 96.202 Q 263.717 89.776 271.138 81.993 Q 278.559 74.21 284.894 66.246 Q 292.134 57.196 299.555 48.508 Q 306.976 39.82 313.945 32.852 A 116.415 116.415 0 0 1 322.799 24.767 A 63.375 63.375 0 0 1 326.343 22.082 Q 328.153 20.815 332.407 17.919 A 44.797 44.797 0 0 1 341.721 13.267 A 72.024 72.024 0 0 1 343.357 12.67 A 143.571 143.571 0 0 1 339.478 12.722 A 164.825 164.825 0 0 1 329.33 12.399 Q 321.999 11.946 315.121 11.041 Q 311.32 10.498 307.338 10.136 Q 303.356 9.774 299.193 9.774 Q 288.152 9.774 278.378 12.67 Q 268.604 15.566 263.355 22.806 Q 260.278 27.15 260.278 31.313 Q 260.278 34.209 261.545 36.019 Q 262.269 36.743 263.174 37.558 Q 264.079 38.372 264.622 38.372 Q 263.898 39.096 262.812 39.096 Q 261.545 39.096 260.369 38.463 Q 259.192 37.829 258.468 37.105 Q 256.658 35.114 255.753 32.49 Q 254.848 29.865 254.848 27.331 Q 254.848 22.263 257.382 18.824 Q 262.45 11.946 270.414 8.688 A 45.364 45.364 0 0 1 283.332 5.748 A 76.728 76.728 0 0 1 290.505 5.43 Q 295.754 5.43 301.908 6.064 Q 308.062 6.697 315.302 7.783 Q 322.542 8.869 330.416 9.503 Q 338.289 10.136 345.348 10.136 A 106.178 106.178 0 0 0 357.177 9.556 A 64.155 64.155 0 0 0 359.014 9.322 A 18.828 18.828 0 0 0 364.408 7.915 A 4.042 4.042 0 0 0 365.982 6.697 Z M 328.866 102.776 A 4.217 4.217 0 0 1 328.425 102.356 Q 326.705 100.455 326.705 97.559 Q 326.705 94.482 328.063 90.862 Q 329.42 87.242 331.411 83.622 Q 336.66 74.572 343.9 64.979 Q 351.14 55.386 359.376 45.974 Q 367.611 36.562 375.575 28.598 Q 379.557 24.797 384.263 21.177 Q 388.969 17.557 393.494 15.114 A 17.854 17.854 0 0 1 401.079 12.677 A 9.94 9.94 0 0 1 401.458 12.67 Q 399.105 14.48 394.218 19.277 Q 389.331 24.073 385.168 28.598 A 303.828 303.828 0 0 0 375.988 38.881 A 457.365 457.365 0 0 0 372.589 42.897 Q 365.62 51.223 358.833 59.911 A 480.238 480.238 0 0 0 346.956 75.725 A 371.979 371.979 0 0 0 346.615 76.201 Q 341.185 83.803 338.47 88.69 Q 337.203 90.862 336.389 93.215 Q 335.574 95.568 335.574 97.559 Q 335.574 100.998 338.651 100.998 Q 340.642 100.998 344.986 98.826 Q 349.511 96.292 353.493 92.22 Q 357.475 88.147 362 83.079 Q 362.543 83.079 362.543 83.622 Q 362.543 84.346 361.91 85.613 L 360.914 87.604 A 78.44 78.44 0 0 1 351.755 96.913 A 45.004 45.004 0 0 1 347.52 100.093 Q 341.185 104.256 334.488 104.256 A 8.753 8.753 0 0 1 328.866 102.776 Z"/>
        <path class="stroke" style="--len: 130.195px; --delay: 1.75s;" d="M 374.67 105.523 Q 366.344 105.523 362.905 101.903 Q 359.466 98.283 359.466 92.129 Q 359.466 86.156 362.815 79.55 Q 366.163 72.943 371.231 66.97 Q 374.308 63.35 378.833 59.368 Q 383.358 55.386 388.607 51.857 Q 393.856 48.327 399.015 46.065 A 23.61 23.61 0 0 1 407.905 43.804 A 14.213 14.213 0 0 1 408.155 43.802 Q 410.327 43.802 412.137 44.798 Q 413.947 45.793 413.947 49.051 Q 413.947 53.576 409.603 57.649 Q 405.259 61.721 399.829 65.16 Q 393.675 69.142 386.978 71.857 A 139.668 139.668 0 0 1 376.804 75.588 A 80.777 80.777 0 0 1 375.394 76.02 Q 372.679 80.364 371.05 84.889 Q 369.421 89.414 369.421 93.758 A 8.768 8.768 0 0 0 371.002 99.539 A 4.401 4.401 0 0 0 371.684 100.184 Q 373.946 101.903 377.023 101.903 Q 382.634 101.903 387.25 99.279 Q 391.865 96.654 395.847 92.491 Q 399.829 88.328 403.449 84.165 Q 404.173 84.165 404.173 85.251 Q 404.173 86.88 403.449 87.785 Q 399.829 91.948 395.576 96.111 Q 391.322 100.274 386.254 102.899 Q 381.186 105.523 374.67 105.523 Z M 377.566 73.486 A 127.82 127.82 0 0 0 387.118 69.665 A 209.393 209.393 0 0 0 388.698 68.961 Q 395.123 66.065 400.01 62.626 A 38.282 38.282 0 0 0 402.555 60.675 A 140.051 140.051 0 0 0 403.811 59.64 Q 406.526 57.377 408.879 54.572 Q 411.232 51.766 411.232 49.594 Q 411.232 46.698 408.336 46.698 Q 405.259 46.698 401.368 49.413 A 88.774 88.774 0 0 0 395.272 53.994 A 44.147 44.147 0 0 0 395.123 54.119 Q 390.779 58.101 386.073 62.988 Q 381.367 67.875 377.566 73.486 Z"/>
        <path class="stroke" style="--len: 269.195px; --delay: 1.75s;" d="M 403.692 103.223 A 6.095 6.095 0 0 1 402.997 102.537 Q 400.734 99.912 400.734 95.93 A 27.568 27.568 0 0 1 402.706 86.5 A 50.01 50.01 0 0 1 403.721 83.984 Q 406.707 77.106 411.775 70.047 Q 416.843 62.988 423.178 56.925 Q 429.513 50.861 436.12 47.151 Q 442.726 43.44 448.88 43.44 Q 453.405 43.44 455.396 45.793 Q 457.387 48.146 457.387 51.947 A 28.785 28.785 0 0 1 455.484 61.411 A 52.505 52.505 0 0 1 454.491 63.984 Q 451.595 70.952 446.618 78.102 Q 441.64 85.251 435.577 91.405 Q 429.513 97.559 422.997 101.36 Q 416.481 105.161 410.508 105.161 A 10.363 10.363 0 0 1 403.692 103.223 Z M 412.68 101.722 A 13.542 13.542 0 0 0 419.402 99.441 A 32.182 32.182 0 0 0 421.821 97.831 A 72.757 72.757 0 0 0 432.071 88.545 A 102.619 102.619 0 0 0 432.771 87.785 Q 438.382 81.631 443.179 74.663 Q 447.975 67.694 450.962 61.45 A 32.048 32.048 0 0 0 453.705 53.678 A 13.616 13.616 0 0 0 453.948 51.223 Q 453.948 46.879 449.785 46.879 A 11.493 11.493 0 0 0 443.953 48.983 A 31.353 31.353 0 0 0 441.188 50.952 A 79.203 79.203 0 0 0 431.24 60.528 A 113.714 113.714 0 0 0 430.509 61.359 Q 424.988 67.694 420.101 74.753 Q 415.214 81.812 412.228 88.147 Q 409.241 94.482 409.241 98.102 Q 409.241 101.722 412.68 101.722 Z"/>
        <path class="stroke" style="--len: 234.670px; --delay: 1.9s;" d="M 483.813 75.477 L 494.673 64.074 Q 498.112 60.454 501.099 57.196 Q 504.085 53.938 506.619 51.766 Q 510.239 48.508 514.04 46.427 Q 517.841 44.345 521.823 44.526 A 28.748 28.748 0 0 0 517.397 47.959 A 71.234 71.234 0 0 0 516.122 49.142 Q 512.592 52.49 509.877 55.748 Q 505.352 60.816 500.646 67.332 Q 495.94 73.848 491.958 80.817 Q 487.976 87.785 485.623 94.663 Q 485.08 95.93 485.08 96.835 A 1.613 1.613 0 0 0 486.905 98.66 A 4.182 4.182 0 0 0 487.252 98.645 A 13.7 13.7 0 0 0 493.479 96.691 A 32.661 32.661 0 0 0 495.397 95.568 A 74.654 74.654 0 0 0 504.642 88.52 A 115.87 115.87 0 0 0 506.076 87.242 Q 511.868 81.993 517.479 75.296 A 80.813 80.813 0 0 0 521.127 70.545 A 182.317 182.317 0 0 0 522.638 68.418 Q 525.805 63.893 528.611 59.549 A 201.284 201.284 0 0 0 531.57 54.859 A 41.668 41.668 0 0 0 532.321 53.576 A 27.471 27.471 0 0 1 537.33 47.081 A 10.475 10.475 0 0 1 540.647 44.979 A 18.159 18.159 0 0 1 546.913 43.733 A 12.759 12.759 0 0 1 548.249 43.802 A 73.82 73.82 0 0 1 545.48 47.403 A 247.057 247.057 0 0 1 543.543 49.775 Q 540.104 53.938 535.67 59.187 Q 531.235 64.436 526.801 69.595 Q 522.366 74.753 518.837 78.735 A 11307.306 11307.306 0 0 1 515.827 82.129 A 3125.774 3125.774 0 0 1 513.859 84.346 Q 509.153 89.233 504.176 93.849 Q 499.198 98.464 494.04 101.36 Q 488.881 104.256 483.632 104.256 A 8.753 8.753 0 0 1 478.01 102.776 A 4.217 4.217 0 0 1 477.569 102.356 Q 475.849 100.455 475.849 97.559 Q 475.849 94.663 477.207 90.953 Q 478.564 87.242 480.555 83.622 L 481.641 81.631 Q 478.021 85.794 473.315 90.591 A 126.289 126.289 0 0 1 468.281 95.49 A 41.386 41.386 0 0 1 466.075 97.378 Q 462.636 100.455 459.469 102.356 Q 456.301 104.256 454.129 104.256 A 8.906 8.906 0 0 1 448.345 102.702 A 4.494 4.494 0 0 1 447.975 102.356 Q 446.165 100.455 446.165 97.559 Q 446.165 94.482 447.613 90.862 Q 449.061 87.242 451.052 83.622 Q 454.491 77.83 459.65 72.038 Q 464.808 66.246 470.329 61.359 A 227.181 227.181 0 0 1 478.95 54.054 A 134.678 134.678 0 0 1 480.012 53.214 Q 483.994 49.775 488.338 47.784 Q 485.985 47.965 483.723 48.146 Q 481.46 48.327 479.469 48.508 Q 475.668 48.689 472.501 49.323 Q 469.333 49.956 466.618 51.585 Q 467.523 48.508 470.51 46.427 Q 473.496 44.345 476.573 44.164 Q 479.65 43.802 484.175 44.164 Q 488.7 44.526 492.501 44.526 Q 493.587 44.526 495.126 44.345 Q 496.664 44.164 497.569 43.44 Q 497.569 45.25 494.854 46.517 L 492.682 47.603 Q 491.596 48.146 490.872 48.689 Q 489.062 49.956 487.343 51.585 Q 485.623 53.214 483.813 55.024 Q 469.876 68.599 459.559 86.88 Q 457.93 89.776 456.754 92.401 Q 455.577 95.025 455.577 96.835 A 1.613 1.613 0 0 0 457.402 98.66 A 4.182 4.182 0 0 0 457.749 98.645 Q 460.102 98.283 466.437 92.853 A 156.19 156.19 0 0 0 474.099 85.811 A 241.798 241.798 0 0 0 474.673 85.251 Q 479.288 80.726 483.813 75.477 Z"/>
    </g>
</svg>